<svg width="168" height="54" viewBox="0 0 168 54" xmlns="http://www.w3.org/2000/svg"><title>mobix default</title><g fill="none" fill-rule="evenodd"><path d="M3.7 20.055S1.755 21.074 1.616 23.2c-.14 2.132 0 2.92 0 3.29 0 .37.324 2.639 2.084 3.426 1.76.788 10.418 5.327 10.418 5.327L40.195 48.46s1.672 1.164 2.183-.584c.51-1.748.4-3.93.255-5.204-.146-1.273-1.381-2.075-1.892-2.33L9.66 25.073l10.118-5.017-8.117-3.987L3.7 20.055zM23.126 10.282l8.188 4.112 9.535-4.733s1.566-.58 1.746-2.437c.182-1.856.245-2.438.16-3.42-.085-.983-.34-3.205-2.087-2.367-1.746.837-17.542 8.845-17.542 8.845" fill="#00A0B6"/><path d="M39.164 30.036s1.945-1.017 2.084-3.146c.14-2.132 0-2.92 0-3.29 0-.371-.324-2.64-2.084-3.425-1.759-.786-10.418-5.326-10.418-5.326L2.67 1.634S.995.468.486 2.216c-.51 1.748-.4 3.929-.256 5.203.147 1.273 1.384 2.077 1.893 2.33l31.082 15.267-10.12 5.02 8.118 3.987 7.961-3.987zM19.738 39.81l-8.188-4.112-9.535 4.73S.449 41.01.268 42.87c-.182 1.855-.243 2.437-.159 3.417.086.984.34 3.205 2.087 2.368 1.747-.838 17.542-8.845 17.542-8.845" fill="#EC8862"/><path d="M87.856 18.347v13.94c0 1.122-.605 1.252-2.375 1.252s-2.373-.13-2.373-1.253V19.21c0-2.156-.733-3.838-3.151-3.838-1.381 0-2.977.603-4.27 2.2-.475.561-.734 1.38-.734 2.287v12.427c0 1.123-.605 1.253-2.374 1.253-1.768 0-2.373-.13-2.373-1.253V19.21c0-2.156-.735-3.838-3.152-3.838-1.38 0-3.02.603-4.271 2.2-.476.561-.735 1.38-.735 2.287v12.427c0 1.123-.604 1.253-2.372 1.253-1.77 0-2.374-.13-2.374-1.253V12.782c0-1.037.519-1.25 1.769-1.25 1.295 0 1.639.213 1.855 1.032l.56 2.073c1.944-2.244 4.792-3.366 6.863-3.366 3.453 0 5.223 1.553 5.999 3.452 1.943-2.33 4.79-3.452 6.905-3.452 4.573 0 6.603 2.72 6.603 7.076M106.746 22.448c0-6.172-2.244-7.508-5.093-7.508-2.89 0-5.134 1.336-5.134 7.508s2.244 7.725 5.134 7.725c2.85 0 5.093-1.553 5.093-7.725m-15.19 0c0-7.982 4.271-11.263 10.054-11.263 5.825 0 10.1 3.15 10.1 11.263s-4.36 11.435-10.1 11.435c-5.783 0-10.054-3.148-10.054-11.435M130.085 22.578c0-6.084-2.113-7.25-4.66-7.25-1.855 0-3.367 1.035-4.359 2.373-.474.646-.732 1.424-.732 3.625v2.417c0 2.158.214 2.891.732 3.624.95 1.337 2.504 2.417 4.358 2.417 2.548 0 4.661-1.208 4.661-7.206m4.962-.045c0 8.46-3.84 11.307-8.5 11.307-2.547 0-4.963-1.122-6.733-3.105l-.474 1.768c-.259.906-.604 1.036-1.899 1.036-1.25 0-1.77-.173-1.77-1.209V2.208c0-1.077.604-1.208 2.375-1.208 1.768 0 2.373.131 2.373 1.208v11.738c1.64-1.726 4.058-2.719 6.3-2.719 4.575 0 8.328 2.807 8.328 11.306M139.012 32.286V12.782c0-1.08.604-1.25 2.374-1.25 1.768 0 2.373.17 2.373 1.25v19.504c0 1.123-.605 1.253-2.373 1.253-1.77 0-2.374-.13-2.374-1.253m-.518-27.574c0-1.94.433-2.676 2.892-2.676 2.503 0 2.934.604 2.934 2.676 0 2.07-.43 2.677-2.934 2.677-2.459 0-2.892-.607-2.892-2.677M166.715 32.246c0 1.164-.561 1.293-2.418 1.293-1.854 0-2.416-.13-2.5-1.293-.217-2.677-1.684-5.611-4.664-8.2-2.932 2.589-4.4 5.523-4.66 8.2-.084 1.164-.601 1.293-2.46 1.293-1.855 0-2.415-.13-2.415-1.293 0-3.325 2.719-7.941 6.43-10.487-3.624-2.59-5.87-5.871-5.87-8.934 0-1.122.562-1.293 2.417-1.293 1.814 0 2.375.17 2.46 1.293.13 2.243 1.252 4.66 4.142 6.904 2.849-2.244 4.016-4.661 4.1-6.904.043-1.122.647-1.293 2.503-1.293 1.857 0 2.418.17 2.418 1.293 0 3.063-2.288 6.344-5.913 8.934 3.713 2.546 6.43 7.162 6.43 10.487M62.496 47.117c0 .782-.285 1.382-.855 1.8-.57.417-1.386.626-2.448.626-1.068 0-1.925-.161-2.572-.485v-1.47c.942.434 1.818.651 2.63.651 1.047 0 1.571-.316 1.571-.949a.752.752 0 0 0-.173-.507c-.116-.135-.307-.275-.573-.42a9.848 9.848 0 0 0-1.108-.492c-.922-.358-1.547-.715-1.873-1.073-.326-.357-.489-.82-.489-1.39 0-.686.277-1.219.83-1.598.553-.379 1.305-.568 2.256-.568.942 0 1.833.19 2.673.572l-.55 1.282c-.865-.357-1.591-.536-2.18-.536-.899 0-1.348.256-1.348.768 0 .251.117.464.351.637.235.174.745.413 1.533.718.661.255 1.142.49 1.441.702.3.213.522.458.667.735.144.278.217.61.217.997zm8.946-1.739c0 1.309-.335 2.33-1.007 3.064-.67.734-1.605 1.101-2.803 1.101-.749 0-1.41-.169-1.985-.507a3.348 3.348 0 0 1-1.326-1.456c-.309-.632-.463-1.367-.463-2.202 0-1.3.333-2.313 1-3.043.666-.729 1.605-1.093 2.817-1.093 1.16 0 2.077.373 2.753 1.119.676.746 1.014 1.752 1.014 3.017zm-5.831 0c0 1.85.683 2.774 2.05 2.774 1.352 0 2.028-.924 2.028-2.774 0-1.83-.68-2.746-2.043-2.746-.714 0-1.232.237-1.553.71-.322.474-.482 1.152-.482 2.036zm11.808-2.702h-1.956v6.722h-1.71v-6.722h-1.318v-.797l1.318-.522v-.521c0-.947.222-1.648.667-2.104.444-.457 1.122-.685 2.035-.685.6 0 1.188.099 1.768.297l-.45 1.29a3.924 3.924 0 0 0-1.202-.203c-.386 0-.668.12-.844.358-.176.24-.264.598-.264 1.076v.521h1.956v1.29zm4.346 5.49c.415 0 .83-.064 1.246-.195v1.283c-.188.082-.43.15-.728.206a5.016 5.016 0 0 1-.924.083c-1.613 0-2.419-.85-2.419-2.55v-4.317h-1.094v-.753l1.174-.623.58-1.696h1.05v1.782h2.281v1.29H80.65v4.288c0 .41.102.714.307.91.206.195.475.293.808.293zm9.417 1.232l-1.035-3.738c-.126-.396-.353-1.316-.681-2.76H89.4c-.28 1.304-.502 2.23-.666 2.775l-1.065 3.723h-1.883l-2.246-8.012h1.739l1.021 3.948c.232.976.396 1.812.493 2.507h.043c.048-.353.122-.757.221-1.213.099-.457.185-.798.257-1.025l1.217-4.217h1.87l1.18 4.217c.072.236.163.598.272 1.086.108.488.172.867.192 1.137h.057c.073-.594.242-1.424.508-2.492l1.035-3.948h1.71l-2.26 8.012h-1.913zm10.562 0l-.34-1.115h-.058c-.386.488-.775.82-1.166.996-.392.176-.894.264-1.507.264-.787 0-1.402-.212-1.844-.637-.442-.425-.663-1.026-.663-1.804 0-.826.307-1.449.92-1.869.614-.42 1.548-.65 2.804-.688l1.383-.044v-.427c0-.512-.119-.895-.358-1.148-.24-.254-.61-.38-1.112-.38-.41 0-.804.06-1.18.18a8.91 8.91 0 0 0-1.087.428l-.551-1.217c.435-.227.91-.4 1.427-.518a6.567 6.567 0 0 1 1.463-.177c1.02 0 1.788.222 2.308.666.519.444.778 1.142.778 2.094v5.396h-1.217zM99.21 48.24c.618 0 1.114-.172 1.489-.518.374-.345.561-.829.561-1.452v-.695l-1.029.043c-.801.029-1.384.163-1.75.402-.364.24-.546.605-.546 1.098 0 .357.106.633.319.829.212.196.53.293.956.293zm10.192-6.997c.343 0 .626.024.848.072l-.167 1.586a3.217 3.217 0 0 0-.753-.086c-.681 0-1.233.222-1.655.666-.423.444-.634 1.021-.634 1.731v4.187h-1.703v-8.012h1.333l.225 1.413h.087a3.174 3.174 0 0 1 1.04-1.137 2.47 2.47 0 0 1 1.38-.42zm5.535 8.301c-1.246 0-2.22-.363-2.923-1.09-.703-.727-1.054-1.728-1.054-3.003 0-1.308.326-2.337.978-3.086.652-.748 1.548-1.122 2.687-1.122 1.058 0 1.893.32 2.507.963.613.642.92 1.526.92 2.651v.92h-5.34c.025.778.235 1.376.631 1.793.396.418.954.627 1.674.627.473 0 .913-.045 1.322-.134a6.93 6.93 0 0 0 1.314-.446V49a5.227 5.227 0 0 1-1.26.42 7.73 7.73 0 0 1-1.456.123zm-.312-7.012c-.54 0-.974.171-1.3.514-.326.343-.52.843-.583 1.5h3.636c-.01-.662-.169-1.163-.478-1.503-.309-.34-.734-.511-1.275-.511zm14.597 4.586c0 .782-.285 1.382-.855 1.8-.57.417-1.386.626-2.448.626-1.067 0-1.925-.161-2.572-.485v-1.47c.942.434 1.819.651 2.63.651 1.048 0 1.572-.316 1.572-.949a.752.752 0 0 0-.174-.507c-.116-.135-.307-.275-.572-.42a9.848 9.848 0 0 0-1.109-.492c-.922-.358-1.546-.715-1.872-1.073-.326-.357-.49-.82-.49-1.39 0-.686.277-1.219.83-1.598.553-.379 1.305-.568 2.257-.568.941 0 1.832.19 2.673.572l-.55 1.282c-.865-.357-1.592-.536-2.181-.536-.898 0-1.348.256-1.348.768 0 .251.117.464.352.637.234.174.745.413 1.532.718.661.255 1.142.49 1.441.702.3.213.522.458.667.735.145.278.217.61.217.997zm4.825 1.05c.415 0 .83-.065 1.246-.196v1.283c-.189.082-.431.15-.728.206a5.016 5.016 0 0 1-.924.083c-1.613 0-2.42-.85-2.42-2.55v-4.317h-1.093v-.753l1.173-.623.58-1.696h1.05v1.782h2.282v1.29h-2.282v4.288c0 .41.103.714.308.91.205.195.475.293.808.293zm8.497 1.231l-.239-1.05h-.087a2.415 2.415 0 0 1-1.01.877c-.438.212-.936.318-1.496.318-.971 0-1.695-.241-2.174-.724-.478-.483-.717-1.215-.717-2.195v-5.238h1.717v4.94c0 .614.126 1.074.377 1.38.25.308.645.46 1.18.46.715 0 1.24-.213 1.576-.64.336-.428.504-1.144.504-2.148v-3.992h1.71v8.012h-1.34zm6.47.145c-1 0-1.78-.362-2.34-1.086-.561-.725-.841-1.741-.841-3.05 0-1.314.284-2.336.851-3.068.568-.732 1.354-1.097 2.358-1.097 1.053 0 1.855.388 2.405 1.166h.087a10.205 10.205 0 0 1-.123-1.362v-2.92h1.71v11.272h-1.333l-.297-1.05h-.08c-.546.797-1.345 1.195-2.398 1.195zm.455-1.376c.7 0 1.21-.197 1.529-.59.319-.394.483-1.033.493-1.917v-.239c0-1.009-.165-1.726-.493-2.151-.328-.425-.843-.638-1.543-.638-.599 0-1.06.243-1.384.728-.323.486-.485 1.178-.485 2.076 0 .889.157 1.566.47 2.032.315.466.786.699 1.413.699zm7.788 1.231h-1.703v-8.012h1.703v8.012zm-1.804-10.134c0-.304.083-.539.25-.703.167-.164.404-.246.714-.246.299 0 .532.082.699.246.166.164.25.399.25.703 0 .29-.084.518-.25.685-.167.166-.4.25-.7.25-.309 0-.546-.084-.713-.25-.167-.167-.25-.395-.25-.685zm11.344 6.114c0 1.309-.335 2.33-1.007 3.064-.67.734-1.605 1.101-2.803 1.101-.749 0-1.41-.169-1.985-.507a3.348 3.348 0 0 1-1.326-1.456c-.309-.632-.463-1.367-.463-2.202 0-1.3.333-2.313 1-3.043.666-.729 1.605-1.093 2.817-1.093 1.16 0 2.077.373 2.753 1.119.676.746 1.014 1.752 1.014 3.017zm-5.831 0c0 1.85.683 2.774 2.05 2.774 1.352 0 2.028-.924 2.028-2.774 0-1.83-.68-2.746-2.043-2.746-.714 0-1.232.237-1.553.71-.322.474-.482 1.152-.482 2.036z" fill="#ffff"/></g></svg>